name rise49.25peak52.1432fall72.8391.mot
datacolumns 19
datarows 26
range 3.95331900000000 3.99498100000000
endheader
time	ground_force1_vx	ground_force1_vy	ground_force1_vz	ground_force1_px	ground_force1_py	ground_force1_pz	ground_force2_vx	ground_force2_vy	ground_force2_vz	ground_force2_px	ground_force2_py	ground_force2_pz	ground_torque1_x	ground_torque1_y	ground_torque1_z	ground_torque2_x	ground_torque2_y	ground_torque2_z	
3.95331900000000	-7.11400000000000	41.13061500000000	-9.50964600000000	0.30070400000000	0.00000000000000	0.06893600000000	-56.30761300000000	772.26518399999998	-49.28994900000000	0.11849700000000	0.00000000000000	-0.09865500000000	0.00000000000000	-6.20087900000000	0.00000000000000	0.00000000000000	-20.91327600000000	0.00000000000000	
3.95498300000000	-7.71965900000000	48.23943400000000	-10.66987400000000	0.30561300000000	0.00000000000000	0.06983500000000	-57.07374900000000	769.71587499999998	-48.75546500000000	0.11755400000000	0.00000000000000	-0.09853400000000	0.00000000000000	-7.03500100000000	0.00000000000000	0.00000000000000	-20.88855600000000	0.00000000000000	
3.95665200000000	-8.16794400000000	55.44844400000000	-11.71688000000000	0.31017400000000	0.00000000000000	0.07064800000000	-57.85462200000000	767.07939199999998	-48.20343800000000	0.11661100000000	0.00000000000000	-0.09841000000000	0.00000000000000	-7.81070300000000	0.00000000000000	0.00000000000000	-20.86650400000000	0.00000000000000	
3.95832700000000	-8.43908700000000	62.66650700000000	-12.62600900000000	0.31444200000000	0.00000000000000	0.07138700000000	-58.64919600000000	764.35233400000004	-47.63392900000000	0.11566900000000	0.00000000000000	-0.09828000000000	0.00000000000000	-8.51040500000000	0.00000000000000	0.00000000000000	-20.84700500000000	0.00000000000000	
3.95998700000000	-8.52184000000000	69.82485400000000	-13.38131200000000	0.31846200000000	0.00000000000000	0.07206500000000	-59.45635000000000	761.53116699999998	-47.04701700000000	0.11473100000000	0.00000000000000	-0.09814700000000	0.00000000000000	-9.12196000000000	0.00000000000000	0.00000000000000	-20.82991900000000	0.00000000000000	
3.96165200000000	-8.41327900000000	76.87922700000000	-13.97561600000000	0.32226900000000	0.00000000000000	0.07268700000000	-60.27487300000000	758.61224000000004	-46.44280200000000	0.11379700000000	0.00000000000000	-0.09800900000000	0.00000000000000	-9.63885100000000	0.00000000000000	0.00000000000000	-20.81508700000000	0.00000000000000	
3.96331600000000	-8.11796500000000	83.80964899999999	-14.40986200000000	0.32589200000000	0.00000000000000	0.07326200000000	-61.10346900000000	755.59178799999995	-45.82140100000000	0.11286900000000	0.00000000000000	-0.09786700000000	0.00000000000000	-10.05989500000000	0.00000000000000	0.00000000000000	-20.80233000000000	0.00000000000000	
3.96498200000000	-7.64663200000000	90.61823200000001	-14.69188200000000	0.32935400000000	0.00000000000000	0.07379400000000	-61.94075600000000	752.46594900000002	-45.18295300000000	0.11194800000000	0.00000000000000	-0.09772100000000	0.00000000000000	-10.38856900000000	0.00000000000000	0.00000000000000	-20.79144400000000	0.00000000000000	
3.96665200000000	-7.01460200000000	97.32553299999999	-14.83483100000000	0.33267400000000	0.00000000000000	0.07428900000000	-62.78526900000000	749.23077599999999	-44.52762300000000	0.11103600000000	0.00000000000000	-0.09757000000000	0.00000000000000	-10.63205300000000	0.00000000000000	0.00000000000000	-20.78220800000000	0.00000000000000	
3.96831900000000	-6.24009500000000	103.96602799999999	-14.85544500000000	0.33586700000000	0.00000000000000	0.07475100000000	-63.63546000000000	745.88225199999999	-43.85559600000000	0.11013500000000	0.00000000000000	-0.09741400000000	0.00000000000000	-10.80014700000000	0.00000000000000	0.00000000000000	-20.77437900000000	0.00000000000000	
3.96998400000000	-5.34259700000000	110.58322300000000	-14.77231100000000	0.33894600000000	0.00000000000000	0.07518300000000	-64.48970000000000	742.41630299999997	-43.16708500000000	0.10924600000000	0.00000000000000	-0.09725400000000	0.00000000000000	-10.90414500000000	0.00000000000000	0.00000000000000	-20.76769400000000	0.00000000000000	
3.97164600000000	-4.34141300000000	117.22486400000000	-14.60428300000000	0.34192200000000	0.00000000000000	0.07558800000000	-65.34628300000000	738.82881099999997	-42.46233000000000	0.10837000000000	0.00000000000000	-0.09708900000000	0.00000000000000	-10.95578000000000	0.00000000000000	0.00000000000000	-20.76187100000000	0.00000000000000	
3.97331300000000	-3.25447200000000	123.93861300000000	-14.36914000000000	0.34480300000000	0.00000000000000	0.07596900000000	-66.20342700000000	735.11563799999999	-41.74159900000000	0.10751000000000	0.00000000000000	-0.09691900000000	0.00000000000000	-10.96632100000000	0.00000000000000	0.00000000000000	-20.75660700000000	0.00000000000000	
3.97499200000000	-2.09745600000000	130.76845200000000	-14.08256800000000	0.34759700000000	0.00000000000000	0.07632700000000	-67.05927800000001	731.27263600000003	-41.00518900000000	0.10666600000000	0.00000000000000	-0.09674500000000	0.00000000000000	-10.94583700000000	0.00000000000000	0.00000000000000	-20.75158200000000	0.00000000000000	
3.97665300000000	-0.88324600000000	137.75195600000001	-13.75746000000000	0.35030900000000	0.00000000000000	0.07666500000000	-67.91191100000000	727.29566699999998	-40.25342900000000	0.10583900000000	0.00000000000000	-0.09656500000000	0.00000000000000	-10.90269600000000	0.00000000000000	0.00000000000000	-20.74645900000000	0.00000000000000	
3.97832000000000	0.37831700000000	144.91849800000000	-13.40356300000000	0.35294400000000	0.00000000000000	0.07698500000000	-68.75933700000000	723.18062499999996	-39.48668100000000	0.10503200000000	0.00000000000000	-0.09638100000000	0.00000000000000	-10.84326500000000	0.00000000000000	0.00000000000000	-20.74088400000000	0.00000000000000	
3.97998500000000	1.68040400000000	152.28835500000000	-13.02740700000000	0.35550600000000	0.00000000000000	0.07728800000000	-69.59950400000000	718.92345299999999	-38.70533600000000	0.10424500000000	0.00000000000000	-0.09619200000000	0.00000000000000	-10.77181900000000	0.00000000000000	0.00000000000000	-20.73448500000000	0.00000000000000	
3.98165400000000	3.01894100000000	159.87261000000001	-12.63249800000000	0.35799900000000	0.00000000000000	0.07757600000000	-70.43030400000001	714.52016500000002	-37.90982400000000	0.10348000000000	0.00000000000000	-0.09599800000000	0.00000000000000	-10.69061400000000	0.00000000000000	0.00000000000000	-20.72687800000000	0.00000000000000	
3.98332000000000	4.39219700000000	167.67371900000001	-12.21968700000000	0.36042400000000	0.00000000000000	0.07784900000000	-71.24957499999999	709.96686599999998	-37.10060400000000	0.10273800000000	0.00000000000000	-0.09579900000000	0.00000000000000	-10.60010900000000	0.00000000000000	0.00000000000000	-20.71766500000000	0.00000000000000	
3.98498700000000	5.80026900000000	175.68658199999999	-11.78768000000000	0.36278400000000	0.00000000000000	0.07810900000000	-72.05510599999999	705.25977799999998	-36.27817500000000	0.10202000000000	0.00000000000000	-0.09559600000000	0.00000000000000	-10.49927000000000	0.00000000000000	0.00000000000000	-20.70643500000000	0.00000000000000	
3.98664700000000	7.24452000000000	183.89993200000001	-11.33359900000000	0.36508000000000	0.00000000000000	0.07835600000000	-72.84464500000000	700.39525800000001	-35.44306900000000	0.10132600000000	0.00000000000000	-0.09538700000000	0.00000000000000	-10.38594000000000	0.00000000000000	0.00000000000000	-20.69276600000000	0.00000000000000	
3.98832100000000	8.72702400000000	192.29789000000000	-10.85356800000000	0.36731300000000	0.00000000000000	0.07859300000000	-73.61590099999999	695.36982499999999	-34.59585300000000	0.10065800000000	0.00000000000000	-0.09517300000000	0.00000000000000	-10.25722000000000	0.00000000000000	0.00000000000000	-20.67622600000000	0.00000000000000	
3.98998600000000	10.25006700000000	200.86154199999999	-10.34325800000000	0.36948400000000	0.00000000000000	0.07881800000000	-74.36655200000000	690.18018099999995	-33.73713000000000	0.10001700000000	0.00000000000000	-0.09495500000000	0.00000000000000	-10.10984100000000	0.00000000000000	0.00000000000000	-20.65637700000000	0.00000000000000	
3.99165500000000	11.81570600000000	209.57040699999999	-9.79836600000000	0.37159300000000	0.00000000000000	0.07903400000000	-75.09424799999999	684.82323199999996	-32.86753900000000	0.09940400000000	0.00000000000000	-0.09473100000000	0.00000000000000	-9.94049600000000	0.00000000000000	0.00000000000000	-20.63277300000000	0.00000000000000	
3.99331400000000	13.42543500000000	218.40372199999999	-9.21500800000000	0.37364100000000	0.00000000000000	0.07924100000000	-75.79662300000000	679.29611199999999	-31.98775300000000	0.09881900000000	0.00000000000000	-0.09450300000000	0.00000000000000	-9.74611600000000	0.00000000000000	0.00000000000000	-20.60496300000000	0.00000000000000	
3.99498100000000	15.07994600000000	227.34148099999999	-8.59000000000000	0.37562800000000	0.00000000000000	0.07944000000000	-76.47129400000000	673.59620199999995	-31.09848200000000	0.09826200000000	0.00000000000000	-0.09427000000000	0.00000000000000	-9.52408100000000	0.00000000000000	0.00000000000000	-20.57249200000000	0.00000000000000	
